<?xml version="1.0" encoding="UTF-8" standalone="no"?>
<!DOCTYPE svg PUBLIC "-//W3C//DTD SVG 1.1//EN" "http://www.w3.org/Graphics/SVG/1.1/DTD/svg11.dtd">
<svg width="100%" height="100%" viewBox="0 0 99 138" version="1.1" xmlns="http://www.w3.org/2000/svg" xmlns:xlink="http://www.w3.org/1999/xlink" xml:space="preserve" xmlns:serif="http://www.serif.com/" style="fill-rule:evenodd;clip-rule:evenodd;stroke-linejoin:round;stroke-miterlimit:1.41421;">
    <g transform="matrix(1,0,0,1,-0.856421,-0.0002)">
        <g transform="matrix(1,0,0,1,-404.326,-174.168)">
            <g transform="matrix(1,0,0,1,204.119,-85.8981)">
                <g transform="matrix(0.832861,0,0,0.832861,53.3507,71.0703)">
                    <circle cx="200.738" cy="250.659" r="12.804" style="fill:rgb(172,172,172);"/>
                </g>
                <g transform="matrix(1,0,0,1,34.1996,22.2113)">
                    <circle cx="200.738" cy="250.659" r="12.804" style="fill:rgb(172,172,172);"/>
                </g>
                <g transform="matrix(1,0,0,1,48.1643,27.0355)">
                    <circle cx="200.738" cy="250.659" r="12.804" style="fill:rgb(172,172,172);"/>
                </g>
                <g transform="matrix(1,0,0,1,63.2528,35.0153)">
                    <circle cx="200.738" cy="250.659" r="12.804" style="fill:rgb(172,172,172);"/>
                </g>
                <g transform="matrix(1,0,0,1,76.0569,27.0355)">
                    <circle cx="200.738" cy="250.659" r="12.804" style="fill:rgb(172,172,172);"/>
                </g>
                <g transform="matrix(-1,-1.22465e-16,1.38921e-16,-1.13438,417.678,578.797)">
                    <path d="M216.568,258.554C216.798,260.302 216.169,262.054 214.841,263.368C213.513,264.682 211.611,265.434 209.614,265.434L125.369,265.434C123.372,265.434 121.47,264.682 120.142,263.368C118.814,262.054 118.185,260.302 118.415,258.554C121.068,238.345 128.78,179.604 130.842,163.897C131.134,161.673 133.27,159.996 135.809,159.996L199.174,159.996C201.713,159.996 203.849,161.673 204.141,163.897C206.203,179.604 213.915,238.345 216.568,258.554Z" style="fill:rgb(168,219,190);"/>
                </g>
                <g transform="matrix(-0.785228,-9.61627e-17,3.03592e-17,-0.247902,381.706,436.42)">
                    <path d="M217.471,265.434L117.512,265.434C117.512,265.434 119.374,206.637 120.346,175.957C120.672,165.649 123.411,157.801 126.681,157.801L208.302,157.801C211.572,157.801 214.311,165.649 214.637,175.957C215.609,206.637 217.471,265.434 217.471,265.434Z" style="fill:rgb(131,171,148);"/>
                </g>
            </g>
        </g>
        <g transform="matrix(1,0,0,1,-404.326,-174.168)">
            <g transform="matrix(1.70913,0,0,1.70913,344.137,-333.176)">
                <circle cx="64.459" cy="334.906" r="20.257" style="fill:rgb(242,242,242);"/>
            </g>
        </g>
    </g>
</svg>
